<svg width="84" height="84" viewBox="0 0 84 84" fill="none" xmlns="http://www.w3.org/2000/svg">
<path d="M38.6056 54.0687L30.9183 61.7928C29.2977 63.4211 26.7214 63.4211 25.0593 61.8345C24.6022 61.3753 24.1451 60.9577 23.688 60.4985C19.408 56.1563 15.5436 51.6053 12.0947 46.8456C8.68733 42.0859 5.94483 37.3262 3.95027 32.6082C1.99728 27.8485 1 23.2975 1 18.9554C1 16.1162 1.49864 13.4024 2.49591 10.8972C3.49319 8.35038 5.07221 6.01227 7.27453 3.92468C9.93393 1.29431 12.8427 0 15.9176 0C17.0811 0 18.2446 0.250512 19.2834 0.751534C20.3638 1.25256 21.3195 2.00409 22.0675 3.08964L31.7078 16.7425C32.4557 17.7863 32.9959 18.7466 33.3699 19.6651C33.7439 20.5419 33.9517 21.4187 33.9517 22.212C33.9517 23.214 33.6608 24.2161 33.079 25.1764C32.5388 26.1367 31.7493 27.1387 30.7521 28.1408L27.594 31.4392C27.1369 31.8984 26.9292 32.4412 26.9292 33.1092C26.9292 33.4433 26.9707 33.7355 27.0538 34.0695C27.1785 34.4035 27.3032 34.6541 27.3863 34.9046C28.1342 36.2824 29.4224 38.0777 31.2507 40.2488C33.1206 42.4199 35.1151 44.6328 37.2759 46.8456C37.6914 47.2631 38.1485 47.6806 38.5641 48.0982C40.2262 49.7265 40.2677 52.3986 38.6056 54.0687Z" fill="#292D32"/>
<path d="M83.98 68.1771C83.98 69.3461 83.7722 70.5569 83.3567 71.726C83.232 72.06 83.1074 72.394 82.9412 72.728C82.2348 74.2311 81.3206 75.6506 80.1155 76.9867C78.0794 79.2413 75.8356 80.8696 73.3008 81.9134C73.2593 81.9134 73.2177 81.9552 73.1762 81.9552C70.7245 82.9572 68.0651 83.5 65.198 83.5C60.9595 83.5 56.4302 82.498 51.6516 80.4521C46.873 78.4063 42.0944 75.6507 37.3573 72.1852C35.7368 70.9744 34.1162 69.7636 32.5788 68.4693L46.1666 54.8165C47.3301 55.6932 48.3689 56.3613 49.2415 56.8206C49.4493 56.9041 49.6986 57.0293 49.9895 57.1546C50.3219 57.2798 50.6543 57.3216 51.0283 57.3216C51.7347 57.3216 52.2749 57.0711 52.732 56.6118L55.89 53.4804C56.9289 52.4366 57.9261 51.6433 58.8819 51.1423C59.8376 50.5578 60.7933 50.2655 61.8321 50.2655C62.6217 50.2655 63.4527 50.4325 64.3669 50.8083C65.2811 51.184 66.2368 51.7268 67.2756 52.4366L81.0297 62.2483C82.1101 62.9998 82.858 63.8766 83.3151 64.9204C83.7307 65.9642 83.98 67.008 83.98 68.1771Z" fill="#292D32"/>
</svg>
